<svg xmlns="http://www.w3.org/2000/svg" width="2080" height="320" shape-rendering="crispEdges"><g transform="translate(0 0)"><rect x="36" y="95" width="2" height="4" fill="#284237"/><rect x="39" y="95" width="2" height="4" fill="#284237"/><rect x="42" y="95" width="2" height="4" fill="#284237"/><rect x="45" y="95" width="2" height="4" fill="#284237"/><rect x="48" y="95" width="2" height="4" fill="#284237"/><rect x="51" y="95" width="2" height="4" fill="#284237"/><rect x="54" y="95" width="2" height="4" fill="#284237"/><rect x="57" y="95" width="2" height="4" fill="#284237"/><rect x="60" y="95" width="2" height="4" fill="#284237"/><rect x="63" y="95" width="2" height="4" fill="#284237"/><rect x="66" y="95" width="2" height="4" fill="#284237"/><rect x="69" y="95" width="2" height="4" fill="#284237"/></g><g transform="translate(160 0)"><rect x="36" y="95" width="2" height="4" fill="#aacb9b"/><rect x="39" y="95" width="2" height="4" fill="#284237"/><rect x="42" y="95" width="2" height="4" fill="#284237"/><rect x="45" y="95" width="2" height="4" fill="#284237"/><rect x="48" y="95" width="2" height="4" fill="#284237"/><rect x="51" y="95" width="2" height="4" fill="#284237"/><rect x="54" y="95" width="2" height="4" fill="#284237"/><rect x="57" y="95" width="2" height="4" fill="#284237"/><rect x="60" y="95" width="2" height="4" fill="#284237"/><rect x="63" y="95" width="2" height="4" fill="#284237"/><rect x="66" y="95" width="2" height="4" fill="#284237"/><rect x="69" y="95" width="2" height="4" fill="#284237"/></g><g transform="translate(320 0)"><rect x="36" y="95" width="2" height="4" fill="#aacb9b"/><rect x="39" y="95" width="2" height="4" fill="#aacb9b"/><rect x="42" y="95" width="2" height="4" fill="#284237"/><rect x="45" y="95" width="2" height="4" fill="#284237"/><rect x="48" y="95" width="2" height="4" fill="#284237"/><rect x="51" y="95" width="2" height="4" fill="#284237"/><rect x="54" y="95" width="2" height="4" fill="#284237"/><rect x="57" y="95" width="2" height="4" fill="#284237"/><rect x="60" y="95" width="2" height="4" fill="#284237"/><rect x="63" y="95" width="2" height="4" fill="#284237"/><rect x="66" y="95" width="2" height="4" fill="#284237"/><rect x="69" y="95" width="2" height="4" fill="#284237"/></g><g transform="translate(480 0)"><rect x="36" y="95" width="2" height="4" fill="#aacb9b"/><rect x="39" y="95" width="2" height="4" fill="#aacb9b"/><rect x="42" y="95" width="2" height="4" fill="#aacb9b"/><rect x="45" y="95" width="2" height="4" fill="#284237"/><rect x="48" y="95" width="2" height="4" fill="#284237"/><rect x="51" y="95" width="2" height="4" fill="#284237"/><rect x="54" y="95" width="2" height="4" fill="#284237"/><rect x="57" y="95" width="2" height="4" fill="#284237"/><rect x="60" y="95" width="2" height="4" fill="#284237"/><rect x="63" y="95" width="2" height="4" fill="#284237"/><rect x="66" y="95" width="2" height="4" fill="#284237"/><rect x="69" y="95" width="2" height="4" fill="#284237"/></g><g transform="translate(640 0)"><rect x="36" y="95" width="2" height="4" fill="#aacb9b"/><rect x="39" y="95" width="2" height="4" fill="#aacb9b"/><rect x="42" y="95" width="2" height="4" fill="#aacb9b"/><rect x="45" y="95" width="2" height="4" fill="#aacb9b"/><rect x="48" y="95" width="2" height="4" fill="#284237"/><rect x="51" y="95" width="2" height="4" fill="#284237"/><rect x="54" y="95" width="2" height="4" fill="#284237"/><rect x="57" y="95" width="2" height="4" fill="#284237"/><rect x="60" y="95" width="2" height="4" fill="#284237"/><rect x="63" y="95" width="2" height="4" fill="#284237"/><rect x="66" y="95" width="2" height="4" fill="#284237"/><rect x="69" y="95" width="2" height="4" fill="#284237"/></g><g transform="translate(800 0)"><rect x="36" y="95" width="2" height="4" fill="#aacb9b"/><rect x="39" y="95" width="2" height="4" fill="#aacb9b"/><rect x="42" y="95" width="2" height="4" fill="#aacb9b"/><rect x="45" y="95" width="2" height="4" fill="#aacb9b"/><rect x="48" y="95" width="2" height="4" fill="#aacb9b"/><rect x="51" y="95" width="2" height="4" fill="#284237"/><rect x="54" y="95" width="2" height="4" fill="#284237"/><rect x="57" y="95" width="2" height="4" fill="#284237"/><rect x="60" y="95" width="2" height="4" fill="#284237"/><rect x="63" y="95" width="2" height="4" fill="#284237"/><rect x="66" y="95" width="2" height="4" fill="#284237"/><rect x="69" y="95" width="2" height="4" fill="#284237"/></g><g transform="translate(960 0)"><rect x="36" y="95" width="2" height="4" fill="#aacb9b"/><rect x="39" y="95" width="2" height="4" fill="#aacb9b"/><rect x="42" y="95" width="2" height="4" fill="#aacb9b"/><rect x="45" y="95" width="2" height="4" fill="#aacb9b"/><rect x="48" y="95" width="2" height="4" fill="#aacb9b"/><rect x="51" y="95" width="2" height="4" fill="#aacb9b"/><rect x="54" y="95" width="2" height="4" fill="#284237"/><rect x="57" y="95" width="2" height="4" fill="#284237"/><rect x="60" y="95" width="2" height="4" fill="#284237"/><rect x="63" y="95" width="2" height="4" fill="#284237"/><rect x="66" y="95" width="2" height="4" fill="#284237"/><rect x="69" y="95" width="2" height="4" fill="#284237"/></g><g transform="translate(1120 0)"><rect x="36" y="95" width="2" height="4" fill="#aacb9b"/><rect x="39" y="95" width="2" height="4" fill="#aacb9b"/><rect x="42" y="95" width="2" height="4" fill="#aacb9b"/><rect x="45" y="95" width="2" height="4" fill="#aacb9b"/><rect x="48" y="95" width="2" height="4" fill="#aacb9b"/><rect x="51" y="95" width="2" height="4" fill="#aacb9b"/><rect x="54" y="95" width="2" height="4" fill="#aacb9b"/><rect x="57" y="95" width="2" height="4" fill="#284237"/><rect x="60" y="95" width="2" height="4" fill="#284237"/><rect x="63" y="95" width="2" height="4" fill="#284237"/><rect x="66" y="95" width="2" height="4" fill="#284237"/><rect x="69" y="95" width="2" height="4" fill="#284237"/></g><g transform="translate(1280 0)"><rect x="36" y="95" width="2" height="4" fill="#aacb9b"/><rect x="39" y="95" width="2" height="4" fill="#aacb9b"/><rect x="42" y="95" width="2" height="4" fill="#aacb9b"/><rect x="45" y="95" width="2" height="4" fill="#aacb9b"/><rect x="48" y="95" width="2" height="4" fill="#aacb9b"/><rect x="51" y="95" width="2" height="4" fill="#aacb9b"/><rect x="54" y="95" width="2" height="4" fill="#aacb9b"/><rect x="57" y="95" width="2" height="4" fill="#aacb9b"/><rect x="60" y="95" width="2" height="4" fill="#284237"/><rect x="63" y="95" width="2" height="4" fill="#284237"/><rect x="66" y="95" width="2" height="4" fill="#284237"/><rect x="69" y="95" width="2" height="4" fill="#284237"/></g><g transform="translate(1440 0)"><rect x="36" y="95" width="2" height="4" fill="#aacb9b"/><rect x="39" y="95" width="2" height="4" fill="#aacb9b"/><rect x="42" y="95" width="2" height="4" fill="#aacb9b"/><rect x="45" y="95" width="2" height="4" fill="#aacb9b"/><rect x="48" y="95" width="2" height="4" fill="#aacb9b"/><rect x="51" y="95" width="2" height="4" fill="#aacb9b"/><rect x="54" y="95" width="2" height="4" fill="#aacb9b"/><rect x="57" y="95" width="2" height="4" fill="#aacb9b"/><rect x="60" y="95" width="2" height="4" fill="#aacb9b"/><rect x="63" y="95" width="2" height="4" fill="#284237"/><rect x="66" y="95" width="2" height="4" fill="#284237"/><rect x="69" y="95" width="2" height="4" fill="#284237"/></g><g transform="translate(1600 0)"><rect x="36" y="95" width="2" height="4" fill="#aacb9b"/><rect x="39" y="95" width="2" height="4" fill="#aacb9b"/><rect x="42" y="95" width="2" height="4" fill="#aacb9b"/><rect x="45" y="95" width="2" height="4" fill="#aacb9b"/><rect x="48" y="95" width="2" height="4" fill="#aacb9b"/><rect x="51" y="95" width="2" height="4" fill="#aacb9b"/><rect x="54" y="95" width="2" height="4" fill="#aacb9b"/><rect x="57" y="95" width="2" height="4" fill="#aacb9b"/><rect x="60" y="95" width="2" height="4" fill="#aacb9b"/><rect x="63" y="95" width="2" height="4" fill="#aacb9b"/><rect x="66" y="95" width="2" height="4" fill="#284237"/><rect x="69" y="95" width="2" height="4" fill="#284237"/></g><g transform="translate(1760 0)"><rect x="36" y="95" width="2" height="4" fill="#aacb9b"/><rect x="39" y="95" width="2" height="4" fill="#aacb9b"/><rect x="42" y="95" width="2" height="4" fill="#aacb9b"/><rect x="45" y="95" width="2" height="4" fill="#aacb9b"/><rect x="48" y="95" width="2" height="4" fill="#aacb9b"/><rect x="51" y="95" width="2" height="4" fill="#aacb9b"/><rect x="54" y="95" width="2" height="4" fill="#aacb9b"/><rect x="57" y="95" width="2" height="4" fill="#aacb9b"/><rect x="60" y="95" width="2" height="4" fill="#aacb9b"/><rect x="63" y="95" width="2" height="4" fill="#aacb9b"/><rect x="66" y="95" width="2" height="4" fill="#aacb9b"/><rect x="69" y="95" width="2" height="4" fill="#284237"/></g><g transform="translate(1920 0)"><rect x="36" y="95" width="2" height="4" fill="#aacb9b"/><rect x="39" y="95" width="2" height="4" fill="#aacb9b"/><rect x="42" y="95" width="2" height="4" fill="#aacb9b"/><rect x="45" y="95" width="2" height="4" fill="#aacb9b"/><rect x="48" y="95" width="2" height="4" fill="#aacb9b"/><rect x="51" y="95" width="2" height="4" fill="#aacb9b"/><rect x="54" y="95" width="2" height="4" fill="#aacb9b"/><rect x="57" y="95" width="2" height="4" fill="#aacb9b"/><rect x="60" y="95" width="2" height="4" fill="#aacb9b"/><rect x="63" y="95" width="2" height="4" fill="#aacb9b"/><rect x="66" y="95" width="2" height="4" fill="#aacb9b"/><rect x="69" y="95" width="2" height="4" fill="#aacb9b"/></g></svg>
