<svg xmlns="http://www.w3.org/2000/svg" width="160" height="320" viewBox="0 0 160 320" shape-rendering="crispEdges"><g transform="translate(0 5)">
<g transform="translate(-3 4)">
<rect x="86" y="43" width="41" height="12" rx="2" fill="#241210"/>
<path d="M88 43H125 M88 56H125" stroke="#ad5140"/>
<rect x="99" y="47" width="2" height="2" fill="#d1b37b"/>
<rect x="103" y="47" width="2" height="2" fill="#d1b37b"/>
<rect x="101" y="49" width="2" height="2" fill="#d1b37b"/>
<rect x="99" y="51" width="2" height="2" fill="#d1b37b"/>
<rect x="103" y="51" width="2" height="2" fill="#d1b37b"/>
<rect x="107" y="45" width="2" height="2" fill="#d1b37b"/>
<rect x="109" y="45" width="2" height="2" fill="#d1b37b"/>
<rect x="111" y="47" width="2" height="2" fill="#d1b37b"/>
<rect x="109" y="49" width="2" height="2" fill="#d1b37b"/>
<rect x="107" y="51" width="2" height="2" fill="#d1b37b"/>
<rect x="107" y="53" width="2" height="2" fill="#d1b37b"/>
<rect x="109" y="53" width="2" height="2" fill="#d1b37b"/>
<rect x="111" y="53" width="2" height="2" fill="#d1b37b"/>
<rect x="115" y="45" width="2" height="2" fill="#d1b37b"/>
<rect x="115" y="47" width="2" height="2" fill="#d1b37b"/>
<rect x="115" y="49" width="2" height="2" fill="#d1b37b"/>
<rect x="115" y="53" width="2" height="2" fill="#d1b37b"/>
</g>
</g></svg>
