<svg xmlns="http://www.w3.org/2000/svg" width="640" height="320" shape-rendering="crispEdges"><g transform="translate(0 0)"><rect x="32" y="156" width="23" height="7" fill="#333e30"/><rect x="33" y="157" width="21" height="4" fill="#354435"/><rect x="34" y="157" width="19" height="1" fill="#67725a"/><rect x="33" y="161" width="21" height="1" fill="#233025"/><rect x="64" y="156" width="23" height="7" fill="#333e30"/><rect x="65" y="157" width="21" height="4" fill="#354435"/><rect x="66" y="157" width="19" height="1" fill="#67725a"/><rect x="65" y="161" width="21" height="1" fill="#233025"/><rect x="96" y="156" width="23" height="7" fill="#333e30"/><rect x="97" y="157" width="21" height="4" fill="#354435"/><rect x="98" y="157" width="19" height="1" fill="#67725a"/><rect x="97" y="161" width="21" height="1" fill="#233025"/></g><g transform="translate(160 0)"><rect x="32" y="156" width="23" height="7" fill="#333e30"/><rect x="33" y="157" width="21" height="4" fill="#eddfac"/><rect x="34" y="157" width="19" height="1" fill="#fff0c7"/><rect x="33" y="161" width="21" height="1" fill="#ac985f"/><rect x="64" y="156" width="23" height="7" fill="#333e30"/><rect x="65" y="157" width="21" height="4" fill="#354435"/><rect x="66" y="157" width="19" height="1" fill="#67725a"/><rect x="65" y="161" width="21" height="1" fill="#233025"/><rect x="96" y="156" width="23" height="7" fill="#333e30"/><rect x="97" y="157" width="21" height="4" fill="#354435"/><rect x="98" y="157" width="19" height="1" fill="#67725a"/><rect x="97" y="161" width="21" height="1" fill="#233025"/></g><g transform="translate(320 0)"><rect x="32" y="156" width="23" height="7" fill="#333e30"/><rect x="33" y="157" width="21" height="4" fill="#eddfac"/><rect x="34" y="157" width="19" height="1" fill="#fff0c7"/><rect x="33" y="161" width="21" height="1" fill="#ac985f"/><rect x="64" y="156" width="23" height="7" fill="#333e30"/><rect x="65" y="157" width="21" height="4" fill="#eddfac"/><rect x="66" y="157" width="19" height="1" fill="#fff0c7"/><rect x="65" y="161" width="21" height="1" fill="#ac985f"/><rect x="96" y="156" width="23" height="7" fill="#333e30"/><rect x="97" y="157" width="21" height="4" fill="#354435"/><rect x="98" y="157" width="19" height="1" fill="#67725a"/><rect x="97" y="161" width="21" height="1" fill="#233025"/></g><g transform="translate(480 0)"><rect x="32" y="156" width="23" height="7" fill="#333e30"/><rect x="33" y="157" width="21" height="4" fill="#eddfac"/><rect x="34" y="157" width="19" height="1" fill="#fff0c7"/><rect x="33" y="161" width="21" height="1" fill="#ac985f"/><rect x="64" y="156" width="23" height="7" fill="#333e30"/><rect x="65" y="157" width="21" height="4" fill="#eddfac"/><rect x="66" y="157" width="19" height="1" fill="#fff0c7"/><rect x="65" y="161" width="21" height="1" fill="#ac985f"/><rect x="96" y="156" width="23" height="7" fill="#333e30"/><rect x="97" y="157" width="21" height="4" fill="#eddfac"/><rect x="98" y="157" width="19" height="1" fill="#fff0c7"/><rect x="97" y="161" width="21" height="1" fill="#ac985f"/></g></svg>
