<svg xmlns="http://www.w3.org/2000/svg" width="480" height="320" viewBox="0 0 480 320" shape-rendering="crispEdges">
<rect x="62" y="225" width="11" height="11" fill="#11171e"/>
<rect x="63" y="225" width="9" height="1" fill="#8d8693"/>
<rect x="62" y="226" width="1" height="9" fill="#545564"/>
<rect x="63" y="226" width="9" height="9" fill="#242e35"/>
<rect x="72" y="226" width="1" height="10" fill="#080f16"/>
<rect x="63" y="235" width="9" height="1" fill="#080f16"/>
<rect x="66" y="227" width="1" height="1" fill="#eee0b8"/>
<rect x="69" y="227" width="1" height="1" fill="#eee0b8"/>
<rect x="65" y="228" width="1" height="1" fill="#eee0b8"/>
<rect x="66" y="228" width="1" height="1" fill="#eee0b8"/>
<rect x="68" y="228" width="1" height="1" fill="#eee0b8"/>
<rect x="69" y="228" width="1" height="1" fill="#eee0b8"/>
<rect x="64" y="229" width="1" height="1" fill="#eee0b8"/>
<rect x="65" y="229" width="1" height="1" fill="#eee0b8"/>
<rect x="66" y="229" width="1" height="1" fill="#eee0b8"/>
<rect x="67" y="229" width="1" height="1" fill="#eee0b8"/>
<rect x="68" y="229" width="1" height="1" fill="#eee0b8"/>
<rect x="69" y="229" width="1" height="1" fill="#eee0b8"/>
<rect x="64" y="230" width="1" height="1" fill="#eee0b8"/>
<rect x="65" y="230" width="1" height="1" fill="#eee0b8"/>
<rect x="66" y="230" width="1" height="1" fill="#eee0b8"/>
<rect x="67" y="230" width="1" height="1" fill="#eee0b8"/>
<rect x="68" y="230" width="1" height="1" fill="#eee0b8"/>
<rect x="69" y="230" width="1" height="1" fill="#eee0b8"/>
<rect x="65" y="231" width="1" height="1" fill="#eee0b8"/>
<rect x="66" y="231" width="1" height="1" fill="#eee0b8"/>
<rect x="68" y="231" width="1" height="1" fill="#eee0b8"/>
<rect x="69" y="231" width="1" height="1" fill="#eee0b8"/>
<rect x="66" y="232" width="1" height="1" fill="#eee0b8"/>
<rect x="69" y="232" width="1" height="1" fill="#eee0b8"/>
<rect x="222" y="225" width="11" height="11" fill="#11171e"/>
<rect x="223" y="225" width="9" height="1" fill="#a7ead1"/>
<rect x="222" y="226" width="1" height="9" fill="#545564"/>
<rect x="223" y="226" width="9" height="9" fill="#24463f"/>
<rect x="232" y="226" width="1" height="10" fill="#080f16"/>
<rect x="223" y="235" width="9" height="1" fill="#080f16"/>
<rect x="226" y="227" width="1" height="1" fill="#b3f2d6"/>
<rect x="229" y="227" width="1" height="1" fill="#b3f2d6"/>
<rect x="225" y="228" width="1" height="1" fill="#b3f2d6"/>
<rect x="226" y="228" width="1" height="1" fill="#b3f2d6"/>
<rect x="228" y="228" width="1" height="1" fill="#b3f2d6"/>
<rect x="229" y="228" width="1" height="1" fill="#b3f2d6"/>
<rect x="224" y="229" width="1" height="1" fill="#b3f2d6"/>
<rect x="225" y="229" width="1" height="1" fill="#b3f2d6"/>
<rect x="226" y="229" width="1" height="1" fill="#b3f2d6"/>
<rect x="227" y="229" width="1" height="1" fill="#b3f2d6"/>
<rect x="228" y="229" width="1" height="1" fill="#b3f2d6"/>
<rect x="229" y="229" width="1" height="1" fill="#b3f2d6"/>
<rect x="224" y="230" width="1" height="1" fill="#b3f2d6"/>
<rect x="225" y="230" width="1" height="1" fill="#b3f2d6"/>
<rect x="226" y="230" width="1" height="1" fill="#b3f2d6"/>
<rect x="227" y="230" width="1" height="1" fill="#b3f2d6"/>
<rect x="228" y="230" width="1" height="1" fill="#b3f2d6"/>
<rect x="229" y="230" width="1" height="1" fill="#b3f2d6"/>
<rect x="225" y="231" width="1" height="1" fill="#b3f2d6"/>
<rect x="226" y="231" width="1" height="1" fill="#b3f2d6"/>
<rect x="228" y="231" width="1" height="1" fill="#b3f2d6"/>
<rect x="229" y="231" width="1" height="1" fill="#b3f2d6"/>
<rect x="226" y="232" width="1" height="1" fill="#b3f2d6"/>
<rect x="229" y="232" width="1" height="1" fill="#b3f2d6"/>
<rect x="382" y="225" width="11" height="11" fill="#11171e"/>
<rect x="383" y="225" width="9" height="1" fill="#8d8693"/>
<rect x="382" y="226" width="1" height="9" fill="#545564"/>
<rect x="383" y="226" width="9" height="9" fill="#242e35"/>
<rect x="392" y="226" width="1" height="10" fill="#080f16"/>
<rect x="383" y="235" width="9" height="1" fill="#080f16"/>
<rect x="386" y="227" width="1" height="1" fill="#515a65"/>
<rect x="389" y="227" width="1" height="1" fill="#515a65"/>
<rect x="385" y="228" width="1" height="1" fill="#515a65"/>
<rect x="386" y="228" width="1" height="1" fill="#515a65"/>
<rect x="388" y="228" width="1" height="1" fill="#515a65"/>
<rect x="389" y="228" width="1" height="1" fill="#515a65"/>
<rect x="384" y="229" width="1" height="1" fill="#515a65"/>
<rect x="385" y="229" width="1" height="1" fill="#515a65"/>
<rect x="386" y="229" width="1" height="1" fill="#515a65"/>
<rect x="387" y="229" width="1" height="1" fill="#515a65"/>
<rect x="388" y="229" width="1" height="1" fill="#515a65"/>
<rect x="389" y="229" width="1" height="1" fill="#515a65"/>
<rect x="384" y="230" width="1" height="1" fill="#515a65"/>
<rect x="385" y="230" width="1" height="1" fill="#515a65"/>
<rect x="386" y="230" width="1" height="1" fill="#515a65"/>
<rect x="387" y="230" width="1" height="1" fill="#515a65"/>
<rect x="388" y="230" width="1" height="1" fill="#515a65"/>
<rect x="389" y="230" width="1" height="1" fill="#515a65"/>
<rect x="385" y="231" width="1" height="1" fill="#515a65"/>
<rect x="386" y="231" width="1" height="1" fill="#515a65"/>
<rect x="388" y="231" width="1" height="1" fill="#515a65"/>
<rect x="389" y="231" width="1" height="1" fill="#515a65"/>
<rect x="386" y="232" width="1" height="1" fill="#515a65"/>
<rect x="389" y="232" width="1" height="1" fill="#515a65"/>
</svg>
