<svg xmlns="http://www.w3.org/2000/svg" width="46" height="28" shape-rendering="crispEdges"><path d="M5 2H41L44 6V24H2V6Z" fill="#222620"/><path d="M6 3H40L43 6V23H3V6Z" fill="#777060"/><path d="M7 5H39L41 8V21H5V8Z" fill="#362e21"/><g transform="translate(0 0)"><path d="M8 4H38L40 7V18H6V7Z" fill="#947744"/><path d="M9 5H37L39 7V16H7V7Z" fill="#969383"/><rect x="7" y="6" width="2" height="2" fill="#535648"/><rect x="9" y="6" width="2" height="2" fill="#535648"/><rect x="11" y="6" width="2" height="2" fill="#535648"/><rect x="7" y="8" width="2" height="2" fill="#535648"/><rect x="7" y="10" width="2" height="2" fill="#535648"/><rect x="9" y="10" width="2" height="2" fill="#535648"/><rect x="11" y="10" width="2" height="2" fill="#535648"/><rect x="11" y="12" width="2" height="2" fill="#535648"/><rect x="7" y="14" width="2" height="2" fill="#535648"/><rect x="9" y="14" width="2" height="2" fill="#535648"/><rect x="11" y="14" width="2" height="2" fill="#535648"/><rect x="15" y="6" width="2" height="2" fill="#535648"/><rect x="17" y="6" width="2" height="2" fill="#535648"/><rect x="15" y="8" width="2" height="2" fill="#535648"/><rect x="19" y="8" width="2" height="2" fill="#535648"/><rect x="15" y="10" width="2" height="2" fill="#535648"/><rect x="17" y="10" width="2" height="2" fill="#535648"/><rect x="15" y="12" width="2" height="2" fill="#535648"/><rect x="15" y="14" width="2" height="2" fill="#535648"/><rect x="23" y="6" width="2" height="2" fill="#535648"/><rect x="25" y="6" width="2" height="2" fill="#535648"/><rect x="27" y="6" width="2" height="2" fill="#535648"/><rect x="25" y="8" width="2" height="2" fill="#535648"/><rect x="25" y="10" width="2" height="2" fill="#535648"/><rect x="25" y="12" width="2" height="2" fill="#535648"/><rect x="23" y="14" width="2" height="2" fill="#535648"/><rect x="25" y="14" width="2" height="2" fill="#535648"/><rect x="27" y="14" width="2" height="2" fill="#535648"/><rect x="31" y="6" width="2" height="2" fill="#535648"/><rect x="37" y="6" width="2" height="2" fill="#535648"/><rect x="31" y="8" width="2" height="2" fill="#535648"/><rect x="33" y="8" width="2" height="2" fill="#535648"/><rect x="37" y="8" width="2" height="2" fill="#535648"/><rect x="31" y="10" width="2" height="2" fill="#535648"/><rect x="35" y="10" width="2" height="2" fill="#535648"/><rect x="37" y="10" width="2" height="2" fill="#535648"/><rect x="31" y="12" width="2" height="2" fill="#535648"/><rect x="37" y="12" width="2" height="2" fill="#535648"/><rect x="31" y="14" width="2" height="2" fill="#535648"/><rect x="37" y="14" width="2" height="2" fill="#535648"/></g></svg>
