<svg xmlns="http://www.w3.org/2000/svg" width="480" height="320" viewBox="0 0 480 320" shape-rendering="crispEdges">
<rect x="104" y="225" width="11" height="11" fill="#11171e"/>
<rect x="105" y="225" width="9" height="1" fill="#8d8693"/>
<rect x="104" y="226" width="1" height="9" fill="#545564"/>
<rect x="105" y="226" width="9" height="9" fill="#242e35"/>
<rect x="114" y="226" width="1" height="10" fill="#080f16"/>
<rect x="105" y="235" width="9" height="1" fill="#080f16"/>
<rect x="110" y="227" width="1" height="1" fill="#eee0b8"/>
<rect x="106" y="228" width="1" height="1" fill="#eee0b8"/>
<rect x="107" y="228" width="1" height="1" fill="#eee0b8"/>
<rect x="108" y="228" width="1" height="1" fill="#eee0b8"/>
<rect x="109" y="228" width="1" height="1" fill="#eee0b8"/>
<rect x="110" y="228" width="1" height="1" fill="#eee0b8"/>
<rect x="111" y="228" width="1" height="1" fill="#eee0b8"/>
<rect x="110" y="229" width="1" height="1" fill="#eee0b8"/>
<rect x="108" y="231" width="1" height="1" fill="#eee0b8"/>
<rect x="107" y="232" width="1" height="1" fill="#eee0b8"/>
<rect x="108" y="232" width="1" height="1" fill="#eee0b8"/>
<rect x="109" y="232" width="1" height="1" fill="#eee0b8"/>
<rect x="110" y="232" width="1" height="1" fill="#eee0b8"/>
<rect x="111" y="232" width="1" height="1" fill="#eee0b8"/>
<rect x="112" y="232" width="1" height="1" fill="#eee0b8"/>
<rect x="108" y="233" width="1" height="1" fill="#eee0b8"/>
<rect x="264" y="225" width="11" height="11" fill="#11171e"/>
<rect x="265" y="225" width="9" height="1" fill="#a7ead1"/>
<rect x="264" y="226" width="1" height="9" fill="#545564"/>
<rect x="265" y="226" width="9" height="9" fill="#24463f"/>
<rect x="274" y="226" width="1" height="10" fill="#080f16"/>
<rect x="265" y="235" width="9" height="1" fill="#080f16"/>
<rect x="270" y="227" width="1" height="1" fill="#b3f2d6"/>
<rect x="266" y="228" width="1" height="1" fill="#b3f2d6"/>
<rect x="267" y="228" width="1" height="1" fill="#b3f2d6"/>
<rect x="268" y="228" width="1" height="1" fill="#b3f2d6"/>
<rect x="269" y="228" width="1" height="1" fill="#b3f2d6"/>
<rect x="270" y="228" width="1" height="1" fill="#b3f2d6"/>
<rect x="271" y="228" width="1" height="1" fill="#b3f2d6"/>
<rect x="270" y="229" width="1" height="1" fill="#b3f2d6"/>
<rect x="268" y="231" width="1" height="1" fill="#b3f2d6"/>
<rect x="267" y="232" width="1" height="1" fill="#b3f2d6"/>
<rect x="268" y="232" width="1" height="1" fill="#b3f2d6"/>
<rect x="269" y="232" width="1" height="1" fill="#b3f2d6"/>
<rect x="270" y="232" width="1" height="1" fill="#b3f2d6"/>
<rect x="271" y="232" width="1" height="1" fill="#b3f2d6"/>
<rect x="272" y="232" width="1" height="1" fill="#b3f2d6"/>
<rect x="268" y="233" width="1" height="1" fill="#b3f2d6"/>
<rect x="424" y="225" width="11" height="11" fill="#11171e"/>
<rect x="425" y="225" width="9" height="1" fill="#8d8693"/>
<rect x="424" y="226" width="1" height="9" fill="#545564"/>
<rect x="425" y="226" width="9" height="9" fill="#242e35"/>
<rect x="434" y="226" width="1" height="10" fill="#080f16"/>
<rect x="425" y="235" width="9" height="1" fill="#080f16"/>
<rect x="430" y="227" width="1" height="1" fill="#515a65"/>
<rect x="426" y="228" width="1" height="1" fill="#515a65"/>
<rect x="427" y="228" width="1" height="1" fill="#515a65"/>
<rect x="428" y="228" width="1" height="1" fill="#515a65"/>
<rect x="429" y="228" width="1" height="1" fill="#515a65"/>
<rect x="430" y="228" width="1" height="1" fill="#515a65"/>
<rect x="431" y="228" width="1" height="1" fill="#515a65"/>
<rect x="430" y="229" width="1" height="1" fill="#515a65"/>
<rect x="428" y="231" width="1" height="1" fill="#515a65"/>
<rect x="427" y="232" width="1" height="1" fill="#515a65"/>
<rect x="428" y="232" width="1" height="1" fill="#515a65"/>
<rect x="429" y="232" width="1" height="1" fill="#515a65"/>
<rect x="430" y="232" width="1" height="1" fill="#515a65"/>
<rect x="431" y="232" width="1" height="1" fill="#515a65"/>
<rect x="432" y="232" width="1" height="1" fill="#515a65"/>
<rect x="428" y="233" width="1" height="1" fill="#515a65"/>
</svg>
