<svg xmlns="http://www.w3.org/2000/svg" width="160" height="320" shape-rendering="crispEdges"><rect x="44" y="257" width="12" height="1" fill="#736e56"/><rect x="44" y="272" width="12" height="1" fill="#403f31"/><rect x="44" y="258" width="1" height="14" fill="#8c8569"/><rect x="55" y="258" width="1" height="14" fill="#3f4636"/><rect x="56" y="257" width="12" height="1" fill="#736e56"/><rect x="56" y="272" width="12" height="1" fill="#403f31"/><rect x="56" y="258" width="1" height="14" fill="#8c8569"/><rect x="67" y="258" width="1" height="14" fill="#3f4636"/><rect x="68" y="257" width="12" height="1" fill="#736e56"/><rect x="68" y="272" width="12" height="1" fill="#403f31"/><rect x="68" y="258" width="1" height="14" fill="#8c8569"/><rect x="79" y="258" width="1" height="14" fill="#3f4636"/><rect x="80" y="257" width="12" height="1" fill="#736e56"/><rect x="80" y="272" width="12" height="1" fill="#403f31"/><rect x="80" y="258" width="1" height="14" fill="#8c8569"/><rect x="91" y="258" width="1" height="14" fill="#3f4636"/></svg>
